<svg width="99" height="43" viewBox="0 0 99 43" fill="none" xmlns="http://www.w3.org/2000/svg">
<g clip-path="url(#clip0_1_5)">
<path d="M97.926 1.077H1.074V41.923H97.926V1.077Z" stroke="black" stroke-width="3" stroke-miterlimit="10"/>
<path d="M21.816 30.34C20.8017 30.3438 19.7968 30.1453 18.8601 29.7561C17.9234 29.3668 17.0738 28.7946 16.361 28.073C15.6464 27.351 15.0823 26.4943 14.7016 25.5525C14.3208 24.6108 14.1309 23.6028 14.143 22.587C14.143 17.667 18.267 14.777 21.962 14.777C24.605 14.777 27.077 15.771 28.399 18.091L25.927 19.535C25.5004 18.8877 24.9186 18.3574 24.2346 17.9923C23.5506 17.6273 22.7862 17.4391 22.011 17.445C19.837 17.445 17.249 19.155 17.249 22.544C17.249 25.857 19.721 27.669 22.206 27.669C23.0391 27.6604 23.8541 27.4252 24.5637 26.9887C25.2733 26.5522 25.8507 25.9307 26.234 25.191L28.762 26.371C27.338 28.958 24.784 30.34 21.816 30.34ZM37.9 27.537C40.719 27.537 42.658 25.417 42.658 22.567C42.658 19.717 40.718 17.597 37.9 17.597C35.081 17.597 33.075 19.691 33.075 22.52C33.075 25.387 35.018 27.537 37.9 27.537ZM37.602 30.34C33.138 30.34 29.959 26.95 29.959 22.557C29.959 18.077 33.109 14.777 37.602 14.777C39.664 14.777 41.65 15.649 42.602 16.987V15.162H45.655V29.926H42.602V28.096C41.601 29.426 39.661 30.34 37.602 30.34ZM61.08 29.92V18.014H58.73V15.064H61.11V10.701H64.256V15.065H67.517V18.014H64.256V29.918H61.08V29.92ZM76.52 27.537C79.338 27.537 81.281 25.417 81.281 22.567C81.281 19.717 79.338 17.597 76.519 17.597C73.701 17.597 71.699 19.691 71.699 22.52C71.699 25.387 73.638 27.537 76.519 27.537H76.52ZM76.222 30.34C71.754 30.34 68.582 26.95 68.582 22.557C68.582 18.077 71.728 14.777 76.222 14.777C78.284 14.777 80.27 15.649 81.222 16.987V15.162H84.278V29.926H81.222V28.096C80.221 29.426 78.281 30.34 76.222 30.34ZM48.8 29.902V15.138H51.709V17.703C52.31 16.046 53.582 14.903 55.268 14.903C55.634 14.896 55.999 14.937 56.355 15.023V17.878C53.982 17.603 51.976 19.267 51.976 23.067V29.902H48.801H48.8Z" fill="black"/>
</g>
<defs>
<clipPath id="clip0_1_5">
<rect width="99" height="43" fill="white"/>
</clipPath>
</defs>
</svg>
